STARTFONT 2.1
FONT -Adobe-Helvetica-Bold-O-Narrow--33-240-100-100-P-146-ISO8859-1
SIZE 24 100 100
FONTBOUNDINGBOX 34 34 -5 -6

STARTPROPERTIES 26
_DEC_DEVICE_FONTNAMES "PS=Helvetica-Narrow-BoldOblique"
FONTNAME_REGISTRY ""
FAMILY_NAME "Helvetica"
FOUNDRY "Adobe"
WEIGHT_NAME "Bold"
SLANT "O"
SETWIDTH_NAME "Narrow"
ADD_STYLE_NAME ""
PIXEL_SIZE 33
POINT_SIZE 240
RESOLUTION_X 100
RESOLUTION_Y 100
SPACING "P"
AVERAGE_WIDTH 146
CHARSET_REGISTRY "ISO8859"
CHARSET_ENCODING "1"
CHARSET_COLLECTIONS "ASCII ISO8859-1 ADOBE-STANDARD"
FULL_NAME "Helvetica Narrow Bold Oblique"
COPYRIGHT "Copyright (c) 1991 Adobe Systems, Inc."
CAP_HEIGHT 24
X_HEIGHT 19
WEIGHT 10
QUAD_WIDTH 17
DEFAULT_CHAR 0
FONT_DESCENT 6
FONT_ASCENT 28
ENDPROPERTIES

CHARS 190

STARTCHAR space
ENCODING 32
SWIDTH 228 0
DWIDTH 7 0
BBX 1 1 0 0
BITMAP
00
ENDCHAR

STARTCHAR exclam
ENCODING 33
SWIDTH 273 0
DWIDTH 9 0
BBX 8 24 3 0
BITMAP
0F
0F
0F
0E
0E
1E
1E
1E
1C
1C
1C
1C
18
18
18
30
30
00
00
78
70
70
F0
F0
ENDCHAR

STARTCHAR quotedbl
ENCODING 34
SWIDTH 389 0
DWIDTH 12 0
BBX 10 9 5 16
BITMAP
1000
F3C0
F3C0
E3C0
E380
E380
E380
C300
C300
ENDCHAR

STARTCHAR numbersign
ENCODING 35
SWIDTH 456 0
DWIDTH 15 0
BBX 17 24 1 -2
BITMAP
00E380
00E300
00C700
01C600
01C600
018E00
0FFF80
1FFF00
1FFF00
1FFF00
071800
063800
063800
0E3000
7FFE00
7FFC00
7FFC00
FFFC00
18E000
38C000
31C000
31C000
738000
400000
ENDCHAR

STARTCHAR dollar
ENCODING 36
SWIDTH 456 0
DWIDTH 16 0
BBX 16 29 2 -4
BITMAP
0060
0060
01F8
07FE
0FFE
0F5F
1ECF
1CCF
1CCF
1CC0
1E80
1F80
0FE0
0FF8
03FC
01FC
013C
011C
731C
F33C
F33C
7BF8
7FF0
3FE0
1F80
0600
0600
0400
0C00
ENDCHAR

STARTCHAR percent
ENCODING 37
SWIDTH 729 0
DWIDTH 24 0
BBX 21 23 3 -1
BITMAP
0F0060
3F80C0
7F8180
71C100
E1C300
E1C600
E18400
E38C00
FF1800
7F1000
3C3000
0061E0
0047F0
00CFF0
018E38
011C38
031C38
061C30
041C70
0C1FE0
180FC0
100780
200000
ENDCHAR

STARTCHAR ampersand
ENCODING 38
SWIDTH 592 0
DWIDTH 18 0
BBX 16 24 2 0
BITMAP
00E0
01F8
03F8
07FC
0F1C
0E18
0E38
0F38
0FF0
07E0
07C0
0FC7
1FC7
3DE7
71EE
70FE
E0FC
E078
F078
F0FC
FFFC
7FFE
7F9F
1E00
ENDCHAR

STARTCHAR quoteright
ENCODING 39
SWIDTH 228 0
DWIDTH 7 0
BBX 5 9 4 15
BITMAP
78
78
70
70
10
30
60
C0
80
ENDCHAR

STARTCHAR parenleft
ENCODING 40
SWIDTH 273 0
DWIDTH 9 0
BBX 10 29 2 -6
BITMAP
01C0
0380
0300
0700
0E00
0E00
1C00
1C00
3800
3800
3000
7000
7000
7000
F000
E000
E000
E000
E000
E000
E000
E000
E000
E000
6000
7000
7000
3000
3800
ENDCHAR

STARTCHAR parenright
ENCODING 41
SWIDTH 273 0
DWIDTH 8 0
BBX 10 29 -1 -6
BITMAP
0700
0300
0380
0380
0380
0180
01C0
01C0
01C0
01C0
01C0
01C0
01C0
01C0
03C0
0380
0380
0380
0700
0700
0700
0E00
0E00
1C00
1C00
3800
3000
7000
E000
ENDCHAR

STARTCHAR asterisk
ENCODING 42
SWIDTH 319 0
DWIDTH 10 0
BBX 8 12 4 12
BITMAP
04
0C
0C
4D
FF
FF
3C
3C
7C
EE
C4
44
ENDCHAR

STARTCHAR plus
ENCODING 43
SWIDTH 479 0
DWIDTH 15 0
BBX 13 16 2 -1
BITMAP
03C0
0380
0380
0380
0380
0380
7FF8
7FF8
FFF8
FFF8
0700
0700
0E00
0E00
0E00
0E00
ENDCHAR

STARTCHAR comma
ENCODING 44
SWIDTH 228 0
DWIDTH 8 0
BBX 6 10 1 -5
BITMAP
3C
38
38
78
78
18
10
30
60
C0
ENDCHAR

STARTCHAR minus
ENCODING 45
SWIDTH 479 0
DWIDTH 15 0
BBX 14 4 2 5
BITMAP
FFFC
FFF8
FFF8
FFF8
ENDCHAR

STARTCHAR period
ENCODING 46
SWIDTH 228 0
DWIDTH 7 0
BBX 5 5 2 0
BITMAP
78
78
70
F0
F0
ENDCHAR

STARTCHAR slash
ENCODING 47
SWIDTH 228 0
DWIDTH 7 0
BBX 11 23 0 0
BITMAP
0020
0060
0040
00C0
0080
0180
0180
0100
0300
0200
0600
0400
0400
0C00
0800
1800
1000
1000
3000
2000
6000
4000
C000
ENDCHAR

STARTCHAR zero
ENCODING 48
SWIDTH 456 0
DWIDTH 14 0
BBX 13 23 2 0
BITMAP
03E0
0FF0
0FF8
1FF8
3C78
3838
7838
7838
7038
7038
F078
F078
F078
E070
E070
E0F0
E0F0
E0E0
F1E0
FFC0
FF80
7F80
3E00
ENDCHAR

STARTCHAR one
ENCODING 49
SWIDTH 456 0
DWIDTH 16 0
BBX 10 23 5 0
BITMAP
01C0
0180
0380
0F80
7F80
7F80
FF80
0700
0700
0700
0F00
0F00
0F00
0E00
0E00
0E00
1E00
1E00
1E00
1C00
1C00
1C00
3C00
ENDCHAR

STARTCHAR two
ENCODING 50
SWIDTH 456 0
DWIDTH 15 0
BBX 16 23 1 0
BITMAP
00F8
03FC
07FE
07FE
0F1F
0E0F
1E0F
1C0E
100E
001E
003C
007C
00F8
01F0
03C0
0F80
1F00
3E00
3C00
7FFC
7FF8
FFF8
FFF8
ENDCHAR

STARTCHAR three
ENCODING 51
SWIDTH 456 0
DWIDTH 15 0
BBX 14 23 2 0
BITMAP
01E0
03F8
0FFC
0FFC
1E3C
1C1C
3C1C
3C3C
0038
0078
03F0
03F0
03F8
0078
0078
0078
F078
F078
F0F0
7FF0
7FE0
3FC0
1F00
ENDCHAR

STARTCHAR four
ENCODING 52
SWIDTH 456 0
DWIDTH 15 0
BBX 14 23 2 0
BITMAP
007C
0078
00F8
01F8
01F8
03F8
0778
0670
0E70
1C70
18F0
38F0
70F0
60E0
FFF8
FFF8
FFF8
FFF8
01E0
01C0
01C0
01C0
03C0
ENDCHAR

STARTCHAR five
ENCODING 53
SWIDTH 456 0
DWIDTH 15 0
BBX 15 23 2 0
BITMAP
07FE
07FE
07FE
0FFC
0E00
0C00
1C00
1DC0
1FF0
1FF8
3FF8
3C78
2038
0038
0038
0038
F078
F070
F0F0
7FE0
7FC0
3F80
1F00
ENDCHAR

STARTCHAR six
ENCODING 54
SWIDTH 456 0
DWIDTH 13 0
BBX 13 23 2 0
BITMAP
03E0
07F0
0FF8
1E78
3838
3800
3000
7000
77C0
7FE0
FFE0
F8F0
F0F0
E0F0
E0F0
E0E0
E0E0
E1E0
E1C0
FFC0
7F80
7F00
3C00
ENDCHAR

STARTCHAR seven
ENCODING 55
SWIDTH 456 0
DWIDTH 14 0
BBX 14 23 3 0
BITMAP
7FFC
7FFC
7FFC
FFF8
0078
00F0
00E0
01C0
03C0
0380
0700
0F00
0E00
1E00
1C00
3C00
3800
3800
7800
7000
7000
F000
E000
ENDCHAR

STARTCHAR eight
ENCODING 56
SWIDTH 456 0
DWIDTH 15 0
BBX 15 23 2 0
BITMAP
01F8
07FC
0FFE
0F1E
1E0E
1C0E
1C0E
1C1E
1E3C
0FF8
0FF8
1FFC
3C7C
783C
783C
703C
F03C
F03C
F878
7FF0
7FE0
3FC0
0F00
ENDCHAR

STARTCHAR nine
ENCODING 57
SWIDTH 456 0
DWIDTH 15 0
BBX 14 23 2 0
BITMAP
01E0
07F8
0FF8
1FFC
1E3C
3C1C
381C
381C
781C
781C
783C
7C7C
3FFC
3FF8
1FB8
0638
0070
F070
F0F0
F9E0
7FC0
3F80
1E00
ENDCHAR

STARTCHAR colon
ENCODING 58
SWIDTH 273 0
DWIDTH 9 0
BBX 7 17 3 0
BITMAP
1E
1E
1C
3C
3C
00
00
00
00
00
00
00
78
70
70
F0
F0
ENDCHAR

STARTCHAR semicolon
ENCODING 59
SWIDTH 273 0
DWIDTH 9 0
BBX 8 22 2 -5
BITMAP
0F
0F
0E
1E
1E
00
00
00
00
00
00
00
3C
38
38
78
78
18
10
30
60
C0
ENDCHAR

STARTCHAR less
ENCODING 60
SWIDTH 479 0
DWIDTH 16 0
BBX 15 16 2 -1
BITMAP
0002
000C
007C
01FC
07F8
3FE0
7F00
FC00
FC00
FF00
7FC0
1FF0
07F0
01F0
0070
0010
ENDCHAR

STARTCHAR equal
ENCODING 61
SWIDTH 479 0
DWIDTH 15 0
BBX 14 11 2 2
BITMAP
7FFC
7FFC
7FFC
7FFC
0000
0000
0000
FFF8
FFF8
FFF8
FFF0
ENDCHAR

STARTCHAR greater
ENCODING 62
SWIDTH 479 0
DWIDTH 15 0
BBX 14 16 1 -1
BITMAP
2000
3800
3E00
3F80
3FE0
0FF8
03FC
007C
00FC
03FC
1FF0
7FC0
FE00
F800
E000
8000
ENDCHAR

STARTCHAR question
ENCODING 63
SWIDTH 501 0
DWIDTH 16 0
BBX 14 24 4 0
BITMAP
07E0
1FF0
3FF8
3FFC
7C7C
783C
F03C
F03C
8078
0078
00F8
01F0
03E0
0780
0F00
0E00
1E00
0000
0000
1E00
1C00
3C00
3C00
3C00
ENDCHAR

STARTCHAR at
ENCODING 64
SWIDTH 800 0
DWIDTH 27 0
BBX 26 28 2 -4
BITMAP
0003E000
000FF800
003FFE00
00701F00
01E00700
03C00380
07800380
070001C0
0E07B9C0
1C0FF0C0
1838F0C0
3870E0C0
3060E0C0
70C0C0C0
60C0C1C0
61C1C180
61818380
E1838700
61C78E00
61FFFC00
70F9F800
7070E000
38000000
3C000000
1F018000
0FFF8000
07FF8000
00FC0000
ENDCHAR

STARTCHAR A
ENCODING 65
SWIDTH 592 0
DWIDTH 19 0
BBX 18 24 1 0
BITMAP
001F00
001F00
003F00
003F00
003F00
007F00
007780
00F780
00E780
01E780
01E780
03C780
03C780
078380
078380
07FF80
0FFFC0
0FFFC0
1FFFC0
1E03C0
3C03C0
3C03C0
7803C0
F803C0
ENDCHAR

STARTCHAR B
ENCODING 66
SWIDTH 592 0
DWIDTH 19 0
BBX 18 24 2 0
BITMAP
0FFE00
0FFF80
0FFFC0
0FFFC0
0E07C0
1E03C0
1E03C0
1E03C0
1E03C0
1C0780
3FFF00
3FFF00
3FFF00
3FFF80
3C0780
380780
780780
780780
780F80
781F00
7FFF00
7FFE00
FFFC00
FFF000
ENDCHAR

STARTCHAR C
ENCODING 67
SWIDTH 592 0
DWIDTH 19 0
BBX 18 24 3 0
BITMAP
00FC00
03FE00
07FF00
0FFF80
1F0780
1E07C0
3C03C0
3803C0
780000
780000
700000
F00000
F00000
F00000
F00000
F00700
F00F00
F00F00
F81E00
7C3E00
7FFC00
7FF800
3FE000
0F8000
ENDCHAR

STARTCHAR D
ENCODING 68
SWIDTH 592 0
DWIDTH 20 0
BBX 19 24 2 0
BITMAP
0FFE00
0FFF00
0FFF80
0FFFC0
0E07C0
1E03C0
1E03C0
1E03E0
1E03C0
1C03C0
3C03C0
3C03C0
3C03C0
3C03C0
3C0380
380780
780780
780F00
781F00
783E00
7FFC00
7FF800
FFF000
FFE000
ENDCHAR

STARTCHAR E
ENCODING 69
SWIDTH 547 0
DWIDTH 17 0
BBX 18 24 2 0
BITMAP
0FFFC0
0FFFC0
0FFFC0
0FFF80
0E0000
1E0000
1E0000
1E0000
1E0000
1C0000
3FFF00
3FFE00
3FFE00
3FFE00
3C0000
380000
780000
780000
780000
780000
7FFE00
7FFE00
FFFE00
FFFC00
ENDCHAR

STARTCHAR F
ENCODING 70
SWIDTH 501 0
DWIDTH 17 0
BBX 18 24 2 0
BITMAP
0FFFC0
0FFF80
0FFF80
0FFF80
0E0000
1E0000
1E0000
1E0000
1E0000
1C0000
3FFE00
3FFC00
3FFC00
3FFC00
3C0000
380000
780000
780000
780000
780000
700000
700000
F00000
F00000
ENDCHAR

STARTCHAR G
ENCODING 71
SWIDTH 638 0
DWIDTH 20 0
BBX 18 24 3 0
BITMAP
00FC00
01FF00
07FF80
0FFF80
1F07C0
1E03C0
3C03C0
3803C0
780000
700000
700000
F03F80
F03F80
F03F80
F07F80
F00780
F00700
F00F00
F80F00
7C3F00
7FFF00
3FF600
1FE600
0F8000
ENDCHAR

STARTCHAR H
ENCODING 72
SWIDTH 592 0
DWIDTH 20 0
BBX 20 24 2 0
BITMAP
0780F0
0700F0
0F00F0
0F00E0
0F00E0
0F01E0
0E01E0
1E01E0
1E01E0
1FFFC0
1FFFC0
1FFFC0
1FFFC0
3C03C0
3C03C0
3C0380
3C0780
380780
380780
780780
780700
780700
780F00
F00F00
ENDCHAR

STARTCHAR I
ENCODING 73
SWIDTH 228 0
DWIDTH 8 0
BBX 8 24 2 0
BITMAP
0F
0F
0F
0E
0E
1E
1E
1E
1E
1C
3C
3C
3C
3C
3C
38
78
78
78
78
70
70
F0
F0
ENDCHAR

STARTCHAR J
ENCODING 74
SWIDTH 456 0
DWIDTH 15 0
BBX 15 24 2 0
BITMAP
001E
001E
001E
001C
001C
003C
003C
003C
003C
0038
0038
0078
0078
0078
0078
7870
F0F0
F0F0
F0F0
F1E0
FFE0
7FC0
7F80
1E00
ENDCHAR

STARTCHAR K
ENCODING 75
SWIDTH 592 0
DWIDTH 19 0
BBX 20 24 2 0
BITMAP
0F01F0
0F03E0
0F07C0
0E0780
0E0F00
1E1E00
1E3C00
1E7800
1CF800
1DF000
3FE000
3FE000
3FF000
3FF000
3EF800
3C7800
787800
783C00
783C00
783E00
701E00
701F00
F00F00
F00F80
ENDCHAR

STARTCHAR L
ENCODING 76
SWIDTH 501 0
DWIDTH 16 0
BBX 14 24 2 0
BITMAP
0F00
0F00
0F00
0E00
0E00
1E00
1E00
1E00
1E00
1C00
3C00
3C00
3C00
3C00
3C00
3800
7800
7800
7800
7800
7FFC
7FF8
FFF8
FFF8
ENDCHAR

STARTCHAR M
ENCODING 77
SWIDTH 683 0
DWIDTH 21 0
BBX 22 24 2 0
BITMAP
0FC0FC
0FC0FC
0FC0FC
0FC1F8
0FC1F8
1FC1F8
1FC3F8
1FC378
1DC378
1DC770
3DC670
3DC6F0
3DCEF0
3DCCF0
39CCF0
39DCE0
79D8E0
79F9E0
79F9E0
79F1E0
71F1C0
71F1C0
F1E3C0
F1E3C0
ENDCHAR

STARTCHAR N
ENCODING 78
SWIDTH 592 0
DWIDTH 18 0
BBX 19 24 2 0
BITMAP
0F01E0
0F01E0
0F81E0
0F81C0
0F81C0
1F83C0
1FC3C0
1FC3C0
1DC3C0
1DC380
3CE380
3CE780
3CE780
3C7780
387780
387700
787F00
783F00
783F00
783F00
703E00
701E00
F01E00
F01E00
ENDCHAR

STARTCHAR O
ENCODING 79
SWIDTH 638 0
DWIDTH 21 0
BBX 19 24 3 0
BITMAP
007E00
03FF00
07FF80
0FFFC0
1F87C0
1E03E0
3C01E0
3C01E0
7801E0
7801E0
7001E0
F001E0
F001E0
F001E0
F001C0
F003C0
F00380
F00780
F80F00
7C1F00
7FFE00
3FFC00
1FF800
07E000
ENDCHAR

STARTCHAR P
ENCODING 80
SWIDTH 547 0
DWIDTH 18 0
BBX 18 24 2 0
BITMAP
0FFE00
0FFF80
0FFF80
0FFFC0
0E07C0
1E03C0
1E03C0
1E03C0
1E0380
1C0780
3C0780
3C0F00
3FFF00
3FFE00
3FFC00
3FF800
780000
780000
780000
780000
780000
700000
F00000
F00000
ENDCHAR

STARTCHAR Q
ENCODING 81
SWIDTH 638 0
DWIDTH 21 0
BBX 19 25 3 -1
BITMAP
007E00
03FF00
07FF80
0FFFC0
1F87C0
1E03E0
3C01E0
3C01E0
7801E0
7801E0
7001E0
F001E0
F001E0
F001E0
F011C0
F013C0
F03B80
F07F80
F83F00
7C3F00
7FFF00
3FFF00
1FFF80
07E300
000200
ENDCHAR

STARTCHAR R
ENCODING 82
SWIDTH 592 0
DWIDTH 19 0
BBX 19 24 2 0
BITMAP
0FFF80
0FFFC0
0FFFE0
0FFFE0
0E03E0
1E01E0
1E01E0
1E01E0
1E01C0
1C03C0
3C0780
3FFF80
3FFF00
3FFE00
3FFF00
380F00
780F00
780F00
780F00
780F00
780F00
700F00
F00F00
F00F00
ENDCHAR

STARTCHAR S
ENCODING 83
SWIDTH 547 0
DWIDTH 17 0
BBX 17 24 2 0
BITMAP
00FC00
03FE00
07FF00
0FFF80
1E0F80
1C0780
3C0780
3C0000
3C0000
3F0000
3FF800
1FFE00
0FFF00
00FF00
001F00
000F00
F00F00
F00F00
F00E00
F81E00
7FFC00
7FFC00
3FF000
0FC000
ENDCHAR

STARTCHAR T
ENCODING 84
SWIDTH 501 0
DWIDTH 17 0
BBX 16 24 4 0
BITMAP
FFFF
FFFE
FFFE
FFFE
0780
0780
0780
0780
0780
0700
0F00
0F00
0F00
0F00
0F00
0E00
1E00
1E00
1E00
1E00
1C00
1C00
3C00
3C00
ENDCHAR

STARTCHAR U
ENCODING 85
SWIDTH 592 0
DWIDTH 19 0
BBX 18 24 3 0
BITMAP
1E03C0
1E03C0
1E03C0
1C0380
1C0380
3C0780
3C0780
3C0780
3C0780
380700
780700
780F00
780F00
780F00
700F00
700E00
F01E00
F01E00
F03E00
787C00
7FF800
7FF800
3FE000
0F8000
ENDCHAR

STARTCHAR V
ENCODING 86
SWIDTH 547 0
DWIDTH 19 0
BBX 17 24 5 0
BITMAP
F80780
780F00
780F00
780E00
781E00
781C00
783C00
783800
783800
787800
387000
38F000
38E000
38E000
39C000
39C000
3B8000
3B8000
3F8000
3F0000
3F0000
1E0000
1E0000
1C0000
ENDCHAR

STARTCHAR W
ENCODING 87
SWIDTH 774 0
DWIDTH 26 0
BBX 25 24 4 0
BITMAP
F83E0F80
783E0F00
783E0F00
787E1E00
787E1E00
787E1C00
78EE3C00
78EE3C00
78CE3800
79CC7800
79CC7000
798C7000
7B8CF000
7B8CE000
7B0CE000
7F0DC000
770DC000
760DC000
7E0F8000
7E0F8000
3C0F0000
3C0F0000
3C0F0000
381E0000
ENDCHAR

STARTCHAR X
ENCODING 88
SWIDTH 547 0
DWIDTH 19 0
BBX 21 24 1 0
BITMAP
07C0F8
03C0F0
03C1E0
03E3E0
01E3C0
01E780
01E780
01FF00
00FE00
00FE00
00FC00
007800
00F800
00FC00
01FC00
03FC00
03DE00
079E00
0F9E00
0F1F00
1E0F00
3E0F00
3C0F80
F80F80
ENDCHAR

STARTCHAR Y
ENCODING 89
SWIDTH 547 0
DWIDTH 18 0
BBX 16 25 5 -1
BITMAP
F00F
F81E
781E
783C
7838
7878
3CF0
3CF0
3DE0
3DE0
1FC0
1F80
1F80
1F00
1F00
0E00
1E00
1E00
1E00
1E00
1C00
1C00
3C00
3C00
2000
ENDCHAR

STARTCHAR Z
ENCODING 90
SWIDTH 501 0
DWIDTH 16 0
BBX 18 24 1 0
BITMAP
0FFFC0
0FFFC0
0FFFC0
1FFFC0
000780
000F00
001F00
003E00
003C00
007800
00F000
01F000
03E000
03C000
078000
0F8000
1F0000
1E0000
3C0000
780000
FFFE00
FFFE00
FFFC00
FFFC00
ENDCHAR

STARTCHAR bracketleft
ENCODING 91
SWIDTH 273 0
DWIDTH 9 0
BBX 11 30 1 -6
BITMAP
07E0
07E0
07E0
0F00
0F00
0E00
0E00
0E00
0E00
1E00
1C00
1C00
1C00
1C00
1C00
3C00
3800
3800
3800
3800
7800
7800
7000
7000
7000
7000
F000
FE00
FC00
FC00
ENDCHAR

STARTCHAR backslash
ENCODING 92
SWIDTH 228 0
DWIDTH 8 0
BBX 4 23 4 0
BITMAP
C0
C0
C0
C0
40
60
60
60
60
60
60
60
60
60
60
60
20
30
30
30
30
30
30
ENDCHAR

STARTCHAR bracketright
ENCODING 93
SWIDTH 273 0
DWIDTH 8 0
BBX 11 30 -1 -6
BITMAP
07E0
07E0
0FE0
01E0
01E0
01C0
01C0
01C0
01C0
03C0
0380
0380
0380
0380
0380
0780
0700
0700
0700
0700
0F00
0F00
0E00
0E00
0E00
0E00
1E00
FE00
FC00
FC00
ENDCHAR

STARTCHAR asciicircum
ENCODING 94
SWIDTH 479 0
DWIDTH 15 0
BBX 12 14 3 8
BITMAP
01C0
03C0
03C0
07C0
06E0
0EE0
0CE0
1CE0
18E0
3860
3070
7070
6070
E070
ENDCHAR

STARTCHAR underscore
ENCODING 95
SWIDTH 456 0
DWIDTH 14 0
BBX 15 2 0 -6
BITMAP
7FFE
FFFC
ENDCHAR

STARTCHAR quoteleft
ENCODING 96
SWIDTH 228 0
DWIDTH 7 0
BBX 5 8 4 15
BITMAP
18
30
40
40
70
F0
F0
E0
ENDCHAR

STARTCHAR a
ENCODING 97
SWIDTH 456 0
DWIDTH 13 0
BBX 13 18 1 0
BITMAP
03E0
0FF8
1FF8
1C38
3C38
3838
0078
07F8
1FF8
7F78
7870
F070
F0F0
F0F0
FFF0
FFF0
7EF0
3800
ENDCHAR

STARTCHAR b
ENCODING 98
SWIDTH 501 0
DWIDTH 17 0
BBX 16 24 2 0
BITMAP
0F00
0F00
0F00
0E00
0E00
1E00
1E78
1FFC
1FFE
1FFE
1F1E
3E0F
3C0F
3C0F
380E
380E
381E
781E
783C
7C3C
7FF8
7FF0
F7E0
03C0
ENDCHAR

STARTCHAR c
ENCODING 99
SWIDTH 456 0
DWIDTH 15 0
BBX 14 18 2 0
BITMAP
03E0
07F8
0FF8
1FF8
3C3C
3C3C
783C
7800
7000
7000
7000
F078
F070
78F0
7FE0
7FC0
3F80
1F00
ENDCHAR

STARTCHAR d
ENCODING 100
SWIDTH 501 0
DWIDTH 15 0
BBX 15 24 2 0
BITMAP
000E
001E
001C
001C
001C
001C
07BC
1FFC
1FF8
3FF8
78F8
7078
F078
F078
E070
E070
E070
E0F0
E0F0
F1F0
FFE0
FFE0
7FE0
3800
ENDCHAR

STARTCHAR e
ENCODING 101
SWIDTH 456 0
DWIDTH 16 0
BBX 15 18 2 0
BITMAP
01E0
07F8
0FFC
1FFC
3E3C
3C1E
381E
781E
7FFE
7FFC
7FFC
F000
F000
707C
7FF0
7FE0
3FC0
0F00
ENDCHAR

STARTCHAR f
ENCODING 102
SWIDTH 273 0
DWIDTH 9 0
BBX 10 24 2 0
BITMAP
03C0
07C0
0FC0
0F00
0E00
1E00
1E80
7F80
7F80
7F00
1C00
3C00
3C00
3C00
3800
3800
3800
7800
7800
7800
7000
7000
7000
F000
ENDCHAR

STARTCHAR g
ENCODING 103
SWIDTH 501 0
DWIDTH 16 0
BBX 16 22 1 -6
BITMAP
01C7
07E7
0FFF
1FFE
1E1E
3C1E
381E
381E
781E
781C
781C
783C
7C7C
3FFC
3FB8
1F38
0038
F078
F0F0
FFE0
7FC0
3F00
ENDCHAR

STARTCHAR h
ENCODING 104
SWIDTH 501 0
DWIDTH 16 0
BBX 14 24 2 0
BITMAP
0F00
0E00
0E00
0E00
0E00
1E00
1CF0
1DFC
1FFC
1FFC
1E3C
3C3C
3C3C
383C
3838
3838
3838
7838
7878
7078
7070
7070
7070
F0F0
ENDCHAR

STARTCHAR i
ENCODING 105
SWIDTH 228 0
DWIDTH 8 0
BBX 8 24 2 0
BITMAP
0F
0F
0E
0E
00
00
1E
1E
1C
1C
1C
3C
3C
3C
38
38
38
78
78
78
70
70
70
F0
ENDCHAR

STARTCHAR j
ENCODING 106
SWIDTH 228 0
DWIDTH 8 0
BBX 11 30 -1 -6
BITMAP
01E0
01E0
01C0
01C0
0000
0000
03C0
03C0
0380
0380
0380
0780
0780
0780
0700
0700
0700
0F00
0F00
0F00
0E00
0E00
0E00
1E00
1E00
1C00
7C00
7C00
7800
F000
ENDCHAR

STARTCHAR k
ENCODING 107
SWIDTH 456 0
DWIDTH 15 0
BBX 16 24 2 0
BITMAP
0F00
0F00
0E00
0E00
0E00
1E00
1E1F
1E1C
1C3C
1C78
1CF0
3DE0
3FC0
3FC0
3FC0
3FC0
3FE0
7DE0
79E0
78F0
70F0
70F0
70F0
F078
ENDCHAR

STARTCHAR l
ENCODING 108
SWIDTH 228 0
DWIDTH 8 0
BBX 8 23 2 0
BITMAP
0F
0E
0E
0E
1E
1E
1E
1C
1C
1C
3C
3C
3C
38
38
38
78
78
78
70
70
70
F0
ENDCHAR

STARTCHAR m
ENCODING 109
SWIDTH 729 0
DWIDTH 23 0
BBX 22 18 2 0
BITMAP
1E70F8
1EF9F8
1FFFFC
1FFFFC
1E3E3C
3C3C3C
3C3C3C
3C3C3C
383838
383838
383838
787878
787878
707078
707070
707070
707070
F0F0F0
ENDCHAR

STARTCHAR n
ENCODING 110
SWIDTH 501 0
DWIDTH 16 0
BBX 15 18 2 0
BITMAP
1E78
1CFC
1DFE
1FFE
1E1E
3C1E
3C1E
3C1E
381C
381C
381C
783C
783C
783C
7038
7038
7038
F078
ENDCHAR

STARTCHAR o
ENCODING 111
SWIDTH 501 0
DWIDTH 16 0
BBX 15 18 2 0
BITMAP
01E0
07F8
0FFC
1FFC
3E3C
3C1E
781E
781E
701C
701C
703C
F03C
7078
7878
7FF0
3FE0
3FC0
0F00
ENDCHAR

STARTCHAR p
ENCODING 112
SWIDTH 501 0
DWIDTH 16 0
BBX 17 23 0 -6
BITMAP
0F3C00
0F7E00
0FFF00
0FFF00
0F8F00
1F0700
1E0780
1E0700
1C0700
1C0700
3C0F00
3C0F00
3E1E00
3E3E00
3FFC00
3BF800
79F000
780000
700000
700000
700000
F00000
F00000
ENDCHAR

STARTCHAR q
ENCODING 113
SWIDTH 501 0
DWIDTH 16 0
BBX 15 23 2 -6
BITMAP
039E
07DE
0FFC
1FFC
3C7C
383C
783C
7038
7038
7038
F078
F078
70F8
79F0
7FF0
3F70
1E70
00F0
00E0
00E0
00E0
00E0
01E0
ENDCHAR

STARTCHAR r
ENCODING 114
SWIDTH 319 0
DWIDTH 11 0
BBX 11 18 2 0
BITMAP
1E20
1CE0
1DE0
1FE0
1FE0
3E00
3C00
3C00
3800
3800
3800
7800
7800
7800
7000
7000
7000
F000
ENDCHAR

STARTCHAR s
ENCODING 115
SWIDTH 456 0
DWIDTH 15 0
BBX 14 18 2 0
BITMAP
07E0
0FF8
1FF8
3C7C
383C
383C
7E00
7FC0
3FF0
1FF8
03F8
00F8
E078
F070
F8F0
FFE0
7FE0
3F80
ENDCHAR

STARTCHAR t
ENCODING 116
SWIDTH 273 0
DWIDTH 8 0
BBX 8 22 3 0
BITMAP
1E
1C
1C
3C
3C
FF
FE
FE
38
78
78
78
70
70
70
F0
F0
F0
F0
F8
F8
78
ENDCHAR

STARTCHAR u
ENCODING 117
SWIDTH 501 0
DWIDTH 16 0
BBX 15 18 2 0
BITMAP
3C1E
3C1E
381C
381C
381C
783C
783C
783C
7038
7038
7038
F078
F078
F0F8
FFF0
FFF0
7EF0
3C00
ENDCHAR

STARTCHAR v
ENCODING 118
SWIDTH 456 0
DWIDTH 14 0
BBX 14 19 3 0
BITMAP
0004
F03C
7038
7078
7070
70F0
70E0
78E0
79C0
79C0
7BC0
7B80
3B80
3F00
3F00
3E00
3E00
3C00
3C00
ENDCHAR

STARTCHAR w
ENCODING 119
SWIDTH 638 0
DWIDTH 21 0
BBX 20 18 3 0
BITMAP
F0F0F0
F0F0F0
F0F0E0
F1F1E0
F1F1C0
71F1C0
73F3C0
737380
737380
777700
767700
767700
7E7E00
7C7E00
7C7C00
7C7C00
787C00
787800
ENDCHAR

STARTCHAR x
ENCODING 120
SWIDTH 456 0
DWIDTH 15 0
BBX 17 19 0 -1
BITMAP
0F0780
0F0F00
079E00
079E00
07BC00
03F800
03F800
03F000
01E000
03E000
03E000
07F000
0FF000
0FF000
1E7800
3C7800
3C7800
F83C00
000400
ENDCHAR

STARTCHAR y
ENCODING 121
SWIDTH 456 0
DWIDTH 14 0
BBX 16 23 1 -6
BITMAP
3C0F
1C0E
1E1E
1E1C
1E1C
1E38
1E38
1E70
1E70
0EE0
0EE0
0FE0
0FC0
0FC0
0F80
0F80
0F00
0F00
0E00
1E00
7C00
F800
F000
ENDCHAR

STARTCHAR z
ENCODING 122
SWIDTH 410 0
DWIDTH 13 0
BBX 14 18 1 0
BITMAP
1FFC
1FFC
1FFC
3FF8
0078
00F0
01E0
03C0
0780
0F80
1F00
1E00
3C00
7800
FFF0
FFF0
FFE0
FFE0
ENDCHAR

STARTCHAR braceleft
ENCODING 123
SWIDTH 319 0
DWIDTH 10 0
BBX 10 30 2 -6
BITMAP
01C0
03C0
07C0
0700
0600
0E00
0E00
0E00
0E00
0C00
1C00
1C00
1C00
3C00
7800
E000
F800
3800
3800
3800
3800
3000
7000
7000
7000
7000
7000
7C00
7800
3800
ENDCHAR

STARTCHAR bar
ENCODING 124
SWIDTH 230 0
DWIDTH 8 0
BBX 7 29 2 -6
BITMAP
06
06
06
04
0C
0C
0C
0C
0C
18
18
18
18
18
10
30
30
30
30
30
60
60
60
60
60
60
C0
C0
C0
ENDCHAR

STARTCHAR braceright
ENCODING 125
SWIDTH 319 0
DWIDTH 10 0
BBX 10 30 1 -6
BITMAP
0700
0780
0F80
0380
0380
0380
0380
0380
0380
0300
0700
0700
0700
0700
07C0
03C0
0780
0E00
0E00
0E00
0E00
0C00
1C00
1C00
1C00
1C00
3800
F800
F000
E000
ENDCHAR

STARTCHAR asciitilde
ENCODING 126
SWIDTH 479 0
DWIDTH 16 0
BBX 13 6 3 4
BITMAP
1800
3C38
7F30
47F0
C3E0
00C0
ENDCHAR

STARTCHAR exclamdown
ENCODING 161
SWIDTH 273 0
DWIDTH 9 0
BBX 8 24 1 -6
BITMAP
0F
0F
0F
0E
1E
00
00
0C
0C
1C
18
18
18
38
38
38
78
78
78
78
70
70
F0
F0
ENDCHAR

STARTCHAR cent
ENCODING 162
SWIDTH 456 0
DWIDTH 13 0
BBX 12 24 2 -3
BITMAP
0020
0040
0040
07C0
0FE0
1FF0
3DF0
7970
7170
7200
E200
E400
E400
E400
E8F0
E8E0
F9C0
FFC0
FF80
7F00
3C00
2000
4000
C000
ENDCHAR

STARTCHAR sterling
ENCODING 163
SWIDTH 456 0
DWIDTH 13 0
BBX 14 23 1 0
BITMAP
01E0
07F0
0FF8
1FFC
1E3C
3C1C
3C1C
3C1C
3C00
3C00
1C00
7FC0
7F80
1C00
1C00
1C00
1800
3800
7010
FFF0
FFF0
FFF0
83C0
ENDCHAR

STARTCHAR currency
ENCODING 164
SWIDTH 456 0
DWIDTH 15 0
BBX 15 17 2 3
BITMAP
0804
1804
39CE
1FFC
1FF8
1E78
1C38
1838
3838
3830
3830
3C60
3FF0
7FF0
E738
4030
4020
ENDCHAR

STARTCHAR yen
ENCODING 165
SWIDTH 456 0
DWIDTH 15 0
BBX 16 23 3 0
BITMAP
0001
780E
381C
381C
3838
1C70
1C70
1CE0
0FC0
0FC0
0F80
0700
7FF0
FFE0
0600
FFE0
FFE0
0E00
0E00
0E00
1C00
1C00
1C00
ENDCHAR

STARTCHAR brokenbar
ENCODING 166
SWIDTH 230 0
DWIDTH 8 0
BBX 7 30 2 -6
BITMAP
06
06
06
06
0C
0C
0C
0C
0C
08
18
18
00
00
00
00
00
00
30
30
30
60
60
60
60
60
60
C0
C0
C0
ENDCHAR

STARTCHAR section
ENCODING 167
SWIDTH 456 0
DWIDTH 14 0
BBX 14 29 1 -6
BITMAP
01F0
07F8
0FFC
0F3C
1E1C
1E1C
1F00
1F80
0FC0
1FF0
3FF8
31F8
70FC
703C
F838
7C38
7E38
7FF0
1FE0
0FE0
07E0
01F0
20E0
E0E0
E1E0
FFC0
FFC0
7F00
3C00
ENDCHAR

STARTCHAR dieresis
ENCODING 168
SWIDTH 273 0
DWIDTH 9 0
BBX 9 4 4 20
BITMAP
7380
7380
E700
E700
ENDCHAR

STARTCHAR copyright
ENCODING 169
SWIDTH 604 0
DWIDTH 18 0
BBX 20 24 1 0
BITMAP
007E00
01FF80
0383C0
0600E0
0C0060
187C60
30FE30
31C630
638630
630730
470030
C60030
C60030
C60030
C60E20
C70C60
C71C40
C3F8C0
61E180
600380
300700
3C1E00
1FF800
07E000
ENDCHAR

STARTCHAR ordfeminine
ENCODING 170
SWIDTH 303 0
DWIDTH 10 0
BBX 9 15 3 9
BITMAP
0F00
1F00
3180
3180
0700
3F00
7300
6300
6700
7F00
7300
0000
FE00
FE00
FE00
ENDCHAR

STARTCHAR guillemotleft
ENCODING 171
SWIDTH 456 0
DWIDTH 15 0
BBX 11 14 4 2
BITMAP
0820
0820
1860
38E0
71C0
E380
C300
C300
C700
E380
6180
6180
2080
2080
ENDCHAR

STARTCHAR logicalnot
ENCODING 172
SWIDTH 479 0
DWIDTH 16 0
BBX 14 10 3 3
BITMAP
7FFC
7FFC
7FFC
FFFC
0018
0038
0038
0038
0038
0020
ENDCHAR

STARTCHAR hyphen
ENCODING 173
SWIDTH 273 0
DWIDTH 8 0
BBX 8 4 1 7
BITMAP
7F
7F
FE
FE
ENDCHAR

STARTCHAR registered
ENCODING 174
SWIDTH 604 0
DWIDTH 18 0
BBX 20 24 1 0
BITMAP
007E00
01FF80
03C3C0
0701C0
0C00E0
180060
31FC30
31FE30
618730
610330
430630
C3FE30
C3FC30
C33030
C33060
C21860
C618C0
C618C0
661D80
600300
300600
3C1C00
1FF800
07E000
ENDCHAR

STARTCHAR macron
ENCODING 175
SWIDTH 273 0
DWIDTH 8 0
BBX 8 3 4 20
BITMAP
FF
FF
FF
ENDCHAR

STARTCHAR degree
ENCODING 176
SWIDTH 328 0
DWIDTH 10 0
BBX 8 9 4 14
BITMAP
1C
7E
63
C3
C3
C3
C6
7E
38
ENDCHAR

STARTCHAR plusminus
ENCODING 177
SWIDTH 479 0
DWIDTH 16 0
BBX 16 22 1 0
BITMAP
0070
0070
00E0
00E0
00E0
00E0
1FFF
1FFE
1FFE
3FFE
01C0
01C0
01C0
0380
0380
0380
0000
0000
FFFC
FFF8
FFF8
FFF8
ENDCHAR

STARTCHAR twosuperior
ENCODING 178
SWIDTH 273 0
DWIDTH 9 0
BBX 10 14 2 9
BITMAP
0700
1F80
1980
31C0
3180
0180
0300
0700
0E00
1800
3000
7000
7F00
FF00
ENDCHAR

STARTCHAR threesuperior
ENCODING 179
SWIDTH 273 0
DWIDTH 9 0
BBX 10 14 2 9
BITMAP
0F00
1F80
31C0
7180
6180
0380
0F00
0F00
0380
0300
E300
E700
FE00
7C00
ENDCHAR

STARTCHAR acute
ENCODING 180
SWIDTH 273 0
DWIDTH 8 0
BBX 6 5 6 19
BITMAP
3C
38
70
60
C0
ENDCHAR

STARTCHAR mu
ENCODING 181
SWIDTH 501 0
DWIDTH 16 0
BBX 17 24 0 -6
BITMAP
0F0780
0F0780
0E0700
0E0700
0E0700
1E0F00
1E0F00
1E0F00
1C0E00
1C0E00
1C0E00
3C1E00
3C1E00
3C3E00
3FFC00
3FFC00
3F9C00
7F3C00
780000
700000
700000
700000
F00000
F00000
ENDCHAR

STARTCHAR paragraph
ENCODING 182
SWIDTH 456 0
DWIDTH 15 0
BBX 15 29 3 -5
BITMAP
07FE
0FFE
1F98
3F10
3F10
7F30
7F30
7F30
FF30
FE20
7E20
7E60
7E60
3E60
0C40
0440
0CC0
0CC0
0CC0
0CC0
0880
0880
1980
1980
1980
1980
1100
1100
3300
ENDCHAR

STARTCHAR periodcentered
ENCODING 183
SWIDTH 228 0
DWIDTH 7 0
BBX 3 4 4 10
BITMAP
60
E0
E0
C0
ENDCHAR

STARTCHAR cedilla
ENCODING 184
SWIDTH 273 0
DWIDTH 9 0
BBX 8 6 -1 -6
BITMAP
0C
1E
07
47
FE
3C
ENDCHAR

STARTCHAR onesuperior
ENCODING 185
SWIDTH 273 0
DWIDTH 7 0
BBX 5 13 4 9
BITMAP
08
18
F8
F0
30
30
30
70
60
60
60
60
E0
ENDCHAR

STARTCHAR ordmasculine
ENCODING 186
SWIDTH 299 0
DWIDTH 8 0
BBX 9 15 2 9
BITMAP
0F00
1F80
3980
3180
6180
6180
6180
6180
7300
7F00
3C00
0000
FF00
FF00
FE00
ENDCHAR

STARTCHAR guillemotright
ENCODING 187
SWIDTH 456 0
DWIDTH 15 0
BBX 11 14 3 2
BITMAP
2100
2100
3180
31C0
39C0
1CE0
1860
1860
39C0
73C0
6380
C200
8400
8400
ENDCHAR

STARTCHAR onequarter
ENCODING 188
SWIDTH 684 0
DWIDTH 23 0
BBX 19 23 4 0
BITMAP
000040
0C0180
1C0300
FC0600
F80600
180C00
181800
181800
383000
306000
3061E0
30C3C0
3183C0
7186C0
030DC0
060980
061180
0C3180
183FC0
187FC0
300380
600300
E00300
ENDCHAR

STARTCHAR onehalf
ENCODING 189
SWIDTH 684 0
DWIDTH 22 0
BBX 20 23 3 0
BITMAP
000040
060180
0E0300
7E0700
7C0600
0C0C00
0C1C00
0C1800
1C3000
1873C0
1867E0
18CE70
198C70
399C70
030060
0600E0
0601C0
0C0380
180F00
181C00
301C00
603FE0
E03FC0
ENDCHAR

STARTCHAR threequarters
ENCODING 190
SWIDTH 684 0
DWIDTH 22 0
BBX 20 23 3 0
BITMAP
0F0070
1F8060
31C0C0
718180
618180
038300
0F0600
0F0600
038C00
031870
E318E0
E731E0
7E61E0
3C6360
00C6E0
018CC0
0188C0
0318C0
061FE0
063FE0
0C01C0
180180
380180
ENDCHAR

STARTCHAR questiondown
ENCODING 191
SWIDTH 501 0
DWIDTH 15 0
BBX 13 24 1 -6
BITMAP
00F0
00F0
00E0
01E0
0000
0000
01E0
01C0
01C0
0380
0F80
1F00
3E00
3C00
7800
7838
F038
F078
F070
F8F0
FFF0
7FE0
7FC0
1F00
ENDCHAR

STARTCHAR Agrave
ENCODING 192
SWIDTH 592 0
DWIDTH 19 0
BBX 18 28 1 0
BITMAP
001E00
000E00
000700
000300
000100
000000
001F00
001F00
003F00
003F00
007F00
007F00
00F700
00F780
01E780
01E780
03C780
03C780
078780
07FF80
0FFF80
0FFF80
1FFFC0
1E03C0
3C03C0
3C03C0
7803C0
F803C0
ENDCHAR

STARTCHAR Aacute
ENCODING 193
SWIDTH 592 0
DWIDTH 19 0
BBX 18 28 1 0
BITMAP
0003C0
000380
000700
000600
000C00
000000
001F00
001F00
003F00
003F00
007F00
007F00
00F700
00F780
01E780
01E780
03C780
03C780
078780
07FF80
0FFF80
0FFF80
1FFFC0
1E03C0
3C03C0
3C03C0
7803C0
F803C0
ENDCHAR

STARTCHAR Acircumflex
ENCODING 194
SWIDTH 592 0
DWIDTH 19 0
BBX 18 28 1 0
BITMAP
000700
000F00
001F00
003180
006180
000000
001F00
001F00
003F00
003F00
007F00
007F00
00F700
00F780
01E780
01E780
03C780
03C780
078780
07FF80
0FFF80
0FFF80
1FFFC0
1E03C0
3C03C0
3C03C0
7803C0
F803C0
ENDCHAR

STARTCHAR Atilde
ENCODING 195
SWIDTH 592 0
DWIDTH 19 0
BBX 19 27 1 0
BITMAP
001C20
003F60
006FC0
004380
000000
001F00
001F00
003F00
003F00
007F00
007F00
00F700
00F780
01E780
01E780
03C780
03C780
078780
07FF80
0FFF80
0FFF80
1FFFC0
1E03C0
3C03C0
3C03C0
7803C0
F803C0
ENDCHAR

STARTCHAR Adieresis
ENCODING 196
SWIDTH 592 0
DWIDTH 19 0
BBX 19 28 1 0
BITMAP
001CE0
001CE0
0039C0
0039C0
000000
000000
001F00
001F00
003F00
003F00
007F00
007F00
00F700
00F780
01E780
01E780
03C780
03C780
078780
07FF80
0FFF80
0FFF80
1FFFC0
1E03C0
3C03C0
3C03C0
7803C0
F803C0
ENDCHAR

STARTCHAR Aring
ENCODING 197
SWIDTH 592 0
DWIDTH 19 0
BBX 18 28 1 0
BITMAP
000300
000580
000880
000880
000D00
000600
001F00
001F00
003F00
003F00
007F00
007F00
00F700
00F780
01E780
01E780
03C780
03C780
078780
07FF80
0FFF80
0FFF80
1FFFC0
1E03C0
3C03C0
3C03C0
7803C0
F803C0
ENDCHAR

STARTCHAR AE
ENCODING 198
SWIDTH 820 0
DWIDTH 26 0
BBX 29 24 0 0
BITMAP
001FFFF8
003FFFF8
003FFFF0
003FFFF0
0079C000
0073C000
00F3C000
00E3C000
01E38000
01C38000
03C3FFE0
03C7FFC0
0787FFC0
0787FFC0
0F070000
0FFF0000
1FFF0000
1FFF0000
1FFF0000
3C0F0000
3C0FFFC0
780FFFC0
780FFF80
F01FFF80
ENDCHAR

STARTCHAR Ccedilla
ENCODING 199
SWIDTH 592 0
DWIDTH 19 0
BBX 18 30 3 -6
BITMAP
00FC00
03FE00
07FF00
0FFF80
1F0780
1E07C0
3C03C0
3803C0
780000
780000
700000
F00000
F00000
F00000
F00000
F00700
F00F00
F00F00
F81E00
7C3E00
7FFC00
7FF800
3FE000
0F8000
060000
0F0000
038000
238000
7F0000
1E0000
ENDCHAR

STARTCHAR Egrave
ENCODING 200
SWIDTH 547 0
DWIDTH 17 0
BBX 18 28 2 0
BITMAP
00F000
007000
003800
001800
000800
000000
0FFFC0
0FFFC0
0FFF80
0FFF80
1F0000
1E0000
1E0000
1E0000
1E0000
3FFF00
3FFF00
3FFE00
3FFE00
3C0000
780000
780000
780000
780000
7FFE00
FFFE00
FFFC00
FFFC00
ENDCHAR

STARTCHAR Eacute
ENCODING 201
SWIDTH 547 0
DWIDTH 17 0
BBX 18 28 2 0
BITMAP
001E00
001C00
003800
003000
006000
000000
0FFFC0
0FFFC0
0FFF80
0FFF80
1F0000
1E0000
1E0000
1E0000
1E0000
3FFF00
3FFF00
3FFE00
3FFE00
3C0000
780000
780000
780000
780000
7FFE00
FFFE00
FFFC00
FFFC00
ENDCHAR

STARTCHAR Ecircumflex
ENCODING 202
SWIDTH 547 0
DWIDTH 17 0
BBX 18 28 2 0
BITMAP
001C00
003C00
007C00
00C600
018600
000000
0FFFC0
0FFFC0
0FFF80
0FFF80
1F0000
1E0000
1E0000
1E0000
1E0000
3FFF00
3FFF00
3FFE00
3FFE00
3C0000
780000
780000
780000
780000
7FFE00
FFFE00
FFFC00
FFFC00
ENDCHAR

STARTCHAR Edieresis
ENCODING 203
SWIDTH 547 0
DWIDTH 17 0
BBX 18 28 2 0
BITMAP
00E700
00E700
01CE00
01CE00
000000
000000
0FFFC0
0FFFC0
0FFF80
0FFF80
1F0000
1E0000
1E0000
1E0000
1E0000
3FFF00
3FFF00
3FFE00
3FFE00
3C0000
780000
780000
780000
780000
7FFE00
FFFE00
FFFC00
FFFC00
ENDCHAR

STARTCHAR Igrave
ENCODING 204
SWIDTH 228 0
DWIDTH 8 0
BBX 8 28 2 0
BITMAP
1E
0E
07
03
01
00
0F
0F
0F
0E
1E
1E
1E
1E
1C
3C
3C
3C
38
38
78
78
78
78
70
F0
F0
F0
ENDCHAR

STARTCHAR Iacute
ENCODING 205
SWIDTH 228 0
DWIDTH 8 0
BBX 10 28 2 0
BITMAP
03C0
0380
0700
0600
0C00
0000
0F00
0F00
0F00
0E00
1E00
1E00
1E00
1E00
1C00
3C00
3C00
3C00
3800
3800
7800
7800
7800
7800
7000
F000
F000
F000
ENDCHAR

STARTCHAR Icircumflex
ENCODING 206
SWIDTH 228 0
DWIDTH 8 0
BBX 10 28 2 0
BITMAP
0380
0780
0F80
18C0
30C0
0000
0F00
0F00
0F00
0E00
1E00
1E00
1E00
1E00
1C00
3C00
3C00
3C00
3800
3800
7800
7800
7800
7800
7000
F000
F000
F000
ENDCHAR

STARTCHAR Idieresis
ENCODING 207
SWIDTH 228 0
DWIDTH 8 0
BBX 11 28 2 0
BITMAP
1CE0
1CE0
39C0
39C0
0000
0000
0F00
0F00
0F00
0E00
1E00
1E00
1E00
1E00
1C00
3C00
3C00
3C00
3800
3800
7800
7800
7800
7800
7000
F000
F000
F000
ENDCHAR

STARTCHAR Eth
ENCODING 208
SWIDTH 592 0
DWIDTH 20 0
BBX 20 24 1 0
BITMAP
07FF00
07FF80
07FFC0
07FFE0
0703E0
0F01E0
0F01E0
0F01F0
0F01E0
0E01E0
7FE1E0
7FC1E0
FFC1E0
1E01E0
1E01C0
1C03C0
3C03C0
3C0780
3C0F80
3C1F00
3FFE00
3FFC00
7FF800
7FF000
ENDCHAR

STARTCHAR Ntilde
ENCODING 209
SWIDTH 592 0
DWIDTH 18 0
BBX 19 28 2 0
BITMAP
007080
00FD80
01BF00
010E00
000000
000000
0F01E0
0F01E0
0F01E0
0F81C0
1F83C0
1F83C0
1FC3C0
1DC3C0
1DC380
3DE380
3CE780
3CE780
38F780
387700
787700
787F00
783F00
783F00
703E00
F01E00
F01E00
F01E00
ENDCHAR

STARTCHAR Ograve
ENCODING 210
SWIDTH 638 0
DWIDTH 21 0
BBX 19 28 3 0
BITMAP
007800
003800
001C00
000C00
000400
000000
00FC00
03FF00
07FF80
0FFFC0
1F87C0
3E03E0
3C01E0
7C01E0
7801E0
7801E0
F001E0
F001E0
F003C0
F003C0
F007C0
F00780
F80F80
7C3F00
7FFE00
3FFC00
1FF800
07E000
ENDCHAR

STARTCHAR Oacute
ENCODING 211
SWIDTH 638 0
DWIDTH 21 0
BBX 19 28 3 0
BITMAP
000F00
000E00
001C00
001800
003000
000000
00FC00
03FF00
07FF80
0FFFC0
1F87C0
3E03E0
3C01E0
7C01E0
7801E0
7801E0
F001E0
F001E0
F003C0
F003C0
F007C0
F00780
F80F80
7C3F00
7FFE00
3FFC00
1FF800
07E000
ENDCHAR

STARTCHAR Ocircumflex
ENCODING 212
SWIDTH 638 0
DWIDTH 21 0
BBX 19 28 3 0
BITMAP
001C00
003C00
007C00
00C600
018600
000000
00FC00
03FF00
07FF80
0FFFC0
1F87C0
3E03E0
3C01E0
7C01E0
7801E0
7801E0
F001E0
F001E0
F003C0
F003C0
F007C0
F00780
F80F80
7C3F00
7FFE00
3FFC00
1FF800
07E000
ENDCHAR

STARTCHAR Otilde
ENCODING 213
SWIDTH 638 0
DWIDTH 21 0
BBX 19 27 3 0
BITMAP
007080
00FD80
01BF00
010E00
000000
00FC00
03FF00
07FF80
0FFFC0
1F87C0
3E03E0
3C01E0
7C01E0
7801E0
7801E0
F001E0
F001E0
F003C0
F003C0
F007C0
F00780
F80F80
7C3F00
7FFE00
3FFC00
1FF800
07E000
ENDCHAR

STARTCHAR Odieresis
ENCODING 214
SWIDTH 638 0
DWIDTH 21 0
BBX 19 28 3 0
BITMAP
00E700
00E700
01CE00
01CE00
000000
000000
00FC00
03FF00
07FF80
0FFFC0
1F87C0
3E03E0
3C01E0
7C01E0
7801E0
7801E0
F001E0
F001E0
F003C0
F003C0
F007C0
F00780
F80F80
7C3F00
7FFE00
3FFC00
1FF800
07E000
ENDCHAR

STARTCHAR multiply
ENCODING 215
SWIDTH 479 0
DWIDTH 15 0
BBX 14 16 2 0
BITMAP
0808
1818
383C
3C7C
3EF8
1FF0
0FE0
0FC0
0F80
1FC0
3FE0
7DE0
F8F0
F0F0
6060
4040
ENDCHAR

STARTCHAR Oslash
ENCODING 216
SWIDTH 638 0
DWIDTH 21 0
BBX 23 25 1 -1
BITMAP
001F82
00FFC6
01FFFC
03FFF8
07E1F8
0780F8
0F00F8
0F01F8
1E0378
1E0678
1C0C78
3C1878
3C3078
3C7078
3CE070
3DC0F0
3F80E0
3F01E0
3E03C0
1F07C0
1FFF80
3FFF00
67FE00
C3F800
400000
ENDCHAR

STARTCHAR Ugrave
ENCODING 217
SWIDTH 592 0
DWIDTH 19 0
BBX 18 28 3 0
BITMAP
01E000
00E000
007000
003000
001000
000000
1E03C0
1E03C0
1E03C0
1C0380
3C0780
3C0780
3C0780
380700
780700
780F00
780F00
780F00
700E00
F01E00
F01E00
F01E00
F03C00
F87C00
7FF800
7FF800
3FE000
0F8000
ENDCHAR

STARTCHAR Uacute
ENCODING 218
SWIDTH 592 0
DWIDTH 19 0
BBX 18 28 3 0
BITMAP
001E00
001C00
003800
003000
006000
000000
1E03C0
1E03C0
1E03C0
1C0380
3C0780
3C0780
3C0780
380700
780700
780F00
780F00
780F00
700E00
F01E00
F01E00
F01E00
F03C00
F87C00
7FF800
7FF800
3FE000
0F8000
ENDCHAR

STARTCHAR Ucircumflex
ENCODING 219
SWIDTH 592 0
DWIDTH 19 0
BBX 18 28 3 0
BITMAP
001C00
003C00
007C00
00C600
018600
000000
1E03C0
1E03C0
1E03C0
1C0380
3C0780
3C0780
3C0780
380700
780700
780F00
780F00
780F00
700E00
F01E00
F01E00
F01E00
F03C00
F87C00
7FF800
7FF800
3FE000
0F8000
ENDCHAR

STARTCHAR Udieresis
ENCODING 220
SWIDTH 592 0
DWIDTH 19 0
BBX 18 28 3 0
BITMAP
00E700
00E700
01CE00
01CE00
000000
000000
1E03C0
1E03C0
1E03C0
1C0380
3C0780
3C0780
3C0780
380700
780700
780F00
780F00
780F00
700E00
F01E00
F01E00
F01E00
F03C00
F87C00
7FF800
7FF800
3FE000
0F8000
ENDCHAR

STARTCHAR Yacute
ENCODING 221
SWIDTH 547 0
DWIDTH 17 0
BBX 16 28 5 0
BITMAP
00F0
00E0
01C0
0180
0300
0000
F00F
F01E
701E
783C
7838
3878
3CF0
3CF0
1DE0
1DE0
1FC0
1F80
0F80
0F00
0F00
0E00
1E00
1E00
1C00
3C00
3C00
3C00
ENDCHAR

STARTCHAR Thorn
ENCODING 222
SWIDTH 547 0
DWIDTH 17 0
BBX 17 24 2 0
BITMAP
0F0000
0F0000
0F0000
0FFE00
0FFF00
1FFF80
1FFF80
1E0780
1E0380
1C0380
3C0780
3C0780
3C0780
3C0F00
3FFF00
3FFE00
7FFC00
7FF000
780000
780000
780000
700000
F00000
F00000
ENDCHAR

STARTCHAR germandbls
ENCODING 223
SWIDTH 501 0
DWIDTH 16 0
BBX 15 24 2 0
BITMAP
00F0
03FC
07FC
0FFE
0F1E
0E1E
1E1E
1E1C
1C1C
1C38
1CF8
3CF8
3DFC
383C
383C
381C
381C
783C
7838
7078
73F0
73F0
F3E0
0380
ENDCHAR

STARTCHAR agrave
ENCODING 224
SWIDTH 456 0
DWIDTH 13 0
BBX 13 24 1 0
BITMAP
0780
0380
01C0
00C0
0040
0000
03E0
0FF8
1FF8
1C38
3C38
3838
0078
07F8
1FF8
7F78
7870
F070
F0F0
F0F0
FFF0
FFF0
7EF0
3800
ENDCHAR

STARTCHAR aacute
ENCODING 225
SWIDTH 456 0
DWIDTH 13 0
BBX 13 24 1 0
BITMAP
0078
0070
00E0
00C0
0180
0000
03E0
0FF8
1FF8
1C38
3C38
3838
0078
07F8
1FF8
7F78
7870
F070
F0F0
F0F0
FFF0
FFF0
7EF0
3800
ENDCHAR

STARTCHAR acircumflex
ENCODING 226
SWIDTH 456 0
DWIDTH 13 0
BBX 13 24 1 0
BITMAP
0070
00F0
01F0
0318
0618
0000
03E0
0FF8
1FF8
1C38
3C38
3838
0078
07F8
1FF8
7F78
7870
F070
F0F0
F0F0
FFF0
FFF0
7EF0
3800
ENDCHAR

STARTCHAR atilde
ENCODING 227
SWIDTH 456 0
DWIDTH 13 0
BBX 14 23 1 0
BITMAP
0384
07EC
0DF8
0870
0000
03E0
0FF8
1FF8
1C38
3C38
3838
0078
07F8
1FF8
7F78
7870
F070
F0F0
F0F0
FFF0
FFF0
7EF0
3800
ENDCHAR

STARTCHAR adieresis
ENCODING 228
SWIDTH 456 0
DWIDTH 13 0
BBX 14 24 1 0
BITMAP
039C
039C
0738
0738
0000
0000
03E0
0FF8
1FF8
1C38
3C38
3838
0078
07F8
1FF8
7F78
7870
F070
F0F0
F0F0
FFF0
FFF0
7EF0
3800
ENDCHAR

STARTCHAR aring
ENCODING 229
SWIDTH 456 0
DWIDTH 13 0
BBX 13 24 1 0
BITMAP
0060
00B0
0110
0110
01A0
00C0
03E0
0FF8
1FF8
1C38
3C38
3838
0078
07F8
1FF8
7F78
7870
F070
F0F0
F0F0
FFF0
FFF0
7EF0
3800
ENDCHAR

STARTCHAR ae
ENCODING 230
SWIDTH 729 0
DWIDTH 23 0
BBX 23 18 1 0
BITMAP
01E1E0
07F3F8
0FFFFC
1FFFFC
3C3E3C
3C3C1E
38381E
00781E
07FFFC
3FFFFC
7F7FFC
787000
F07000
F0F87C
F1FFF8
FFBFF0
7F1FE0
3C0F80
ENDCHAR

STARTCHAR ccedilla
ENCODING 231
SWIDTH 456 0
DWIDTH 15 0
BBX 14 24 2 -6
BITMAP
03E0
07F8
0FF8
1FF8
3C3C
3C3C
783C
7800
7000
7000
7000
F078
F070
78F0
7FE0
7FC0
3F80
1F00
0C00
1E00
0700
4700
FE00
3C00
ENDCHAR

STARTCHAR egrave
ENCODING 232
SWIDTH 456 0
DWIDTH 16 0
BBX 15 24 2 0
BITMAP
03C0
01C0
00E0
0060
0020
0000
01E0
07F8
0FFC
1FFC
3E3C
3C1E
381E
781E
7FFE
7FFC
7FFC
F000
F000
707C
7FF0
7FE0
3FC0
0F00
ENDCHAR

STARTCHAR eacute
ENCODING 233
SWIDTH 456 0
DWIDTH 16 0
BBX 15 24 2 0
BITMAP
003C
0038
0070
0060
00C0
0000
01E0
07F8
0FFC
1FFC
3E3C
3C1E
381E
781E
7FFE
7FFC
7FFC
F000
F000
707C
7FF0
7FE0
3FC0
0F00
ENDCHAR

STARTCHAR ecircumflex
ENCODING 234
SWIDTH 456 0
DWIDTH 16 0
BBX 15 24 2 0
BITMAP
0070
00F0
01F0
0318
0618
0000
01E0
07F8
0FFC
1FFC
3E3C
3C1E
381E
781E
7FFE
7FFC
7FFC
F000
F000
707C
7FF0
7FE0
3FC0
0F00
ENDCHAR

STARTCHAR edieresis
ENCODING 235
SWIDTH 456 0
DWIDTH 16 0
BBX 15 24 2 0
BITMAP
039C
039C
0738
0738
0000
0000
01E0
07F8
0FFC
1FFC
3E3C
3C1E
381E
781E
7FFE
7FFC
7FFC
F000
F000
707C
7FF0
7FE0
3FC0
0F00
ENDCHAR

STARTCHAR igrave
ENCODING 236
SWIDTH 228 0
DWIDTH 8 0
BBX 7 24 2 0
BITMAP
3C
1C
0E
06
02
00
1E
1E
1C
1C
1C
3C
3C
3C
38
38
38
78
78
78
70
70
70
F0
ENDCHAR

STARTCHAR iacute
ENCODING 237
SWIDTH 228 0
DWIDTH 8 0
BBX 9 24 2 0
BITMAP
0780
0700
0E00
0C00
1800
0000
1E00
1E00
1C00
1C00
1C00
3C00
3C00
3C00
3800
3800
3800
7800
7800
7800
7000
7000
7000
F000
ENDCHAR

STARTCHAR icircumflex
ENCODING 238
SWIDTH 228 0
DWIDTH 8 0
BBX 9 24 2 0
BITMAP
0700
0F00
1F00
3180
6180
0000
1E00
1E00
1C00
1C00
1C00
3C00
3C00
3C00
3800
3800
3800
7800
7800
7800
7000
7000
7000
F000
ENDCHAR

STARTCHAR idieresis
ENCODING 239
SWIDTH 228 0
DWIDTH 8 0
BBX 10 24 2 0
BITMAP
39C0
39C0
7380
7380
0000
0000
1E00
1E00
1C00
1C00
1C00
3C00
3C00
3C00
3800
3800
3800
7800
7800
7800
7000
7000
7000
F000
ENDCHAR

STARTCHAR eth
ENCODING 240
SWIDTH 501 0
DWIDTH 15 0
BBX 14 24 2 0
BITMAP
0C20
1EF0
0FC0
0FC0
3FC0
11E0
03F0
0FF0
1FF8
3FF8
7C78
783C
F03C
F03C
E038
E038
E078
E078
E0F0
F1F0
FFE0
7FC0
7F80
1E00
ENDCHAR

STARTCHAR ntilde
ENCODING 241
SWIDTH 501 0
DWIDTH 16 0
BBX 15 23 2 0
BITMAP
01C2
03F6
06FC
0438
0000
1E78
1CFC
1DFE
1FFE
1E1E
3C1E
3C1E
3C1E
381C
381C
381C
783C
783C
783C
7038
7038
7038
F078
ENDCHAR

STARTCHAR ograve
ENCODING 242
SWIDTH 501 0
DWIDTH 16 0
BBX 15 24 2 0
BITMAP
03C0
01C0
00E0
0060
0020
0000
01E0
07F8
0FFC
1FFC
3E3C
3C1E
781E
781E
701C
701C
703C
F03C
7078
7878
7FF0
3FE0
3FC0
0F00
ENDCHAR

STARTCHAR oacute
ENCODING 243
SWIDTH 501 0
DWIDTH 16 0
BBX 15 24 2 0
BITMAP
003C
0038
0070
0060
00C0
0000
01E0
07F8
0FFC
1FFC
3E3C
3C1E
781E
781E
701C
701C
703C
F03C
7078
7878
7FF0
3FE0
3FC0
0F00
ENDCHAR

STARTCHAR ocircumflex
ENCODING 244
SWIDTH 501 0
DWIDTH 16 0
BBX 15 24 2 0
BITMAP
0070
00F0
01F0
0318
0618
0000
01E0
07F8
0FFC
1FFC
3E3C
3C1E
781E
781E
701C
701C
703C
F03C
7078
7878
7FF0
3FE0
3FC0
0F00
ENDCHAR

STARTCHAR otilde
ENCODING 245
SWIDTH 501 0
DWIDTH 16 0
BBX 15 23 2 0
BITMAP
01C2
03F6
06FC
0438
0000
01E0
07F8
0FFC
1FFC
3E3C
3C1E
781E
781E
701C
701C
703C
F03C
7078
7878
7FF0
3FE0
3FC0
0F00
ENDCHAR

STARTCHAR odieresis
ENCODING 246
SWIDTH 501 0
DWIDTH 16 0
BBX 15 24 2 0
BITMAP
039C
039C
0738
0738
0000
0000
01E0
07F8
0FFC
1FFC
3E3C
3C1E
781E
781E
701C
701C
703C
F03C
7078
7878
7FF0
3FE0
3FC0
0F00
ENDCHAR

STARTCHAR divide
ENCODING 247
SWIDTH 479 0
DWIDTH 16 0
BBX 14 16 2 0
BITMAP
01C0
01C0
0380
0380
0000
0000
7FFC
7FF8
7FF8
FFF8
0000
0000
0700
0E00
0E00
0E00
ENDCHAR

STARTCHAR oslash
ENCODING 248
SWIDTH 501 0
DWIDTH 14 0
BBX 17 18 0 0
BITMAP
00F080
03FD80
07FF00
0FFE00
1F1E00
1E1F00
3C3F00
3C6F00
38CE00
398E00
3B1E00
7E1E00
3C3C00
3C3C00
3FF800
7FF000
DFE000
878000
ENDCHAR

STARTCHAR ugrave
ENCODING 249
SWIDTH 501 0
DWIDTH 16 0
BBX 15 24 2 0
BITMAP
0780
0380
01C0
00C0
0040
0000
3C1E
3C1E
381C
381C
381C
783C
783C
783C
7038
7038
7038
F078
F078
F0F8
FFF0
FFF0
7EF0
3C00
ENDCHAR

STARTCHAR uacute
ENCODING 250
SWIDTH 501 0
DWIDTH 16 0
BBX 15 24 2 0
BITMAP
0078
0070
00E0
00C0
0180
0000
3C1E
3C1E
381C
381C
381C
783C
783C
783C
7038
7038
7038
F078
F078
F0F8
FFF0
FFF0
7EF0
3C00
ENDCHAR

STARTCHAR ucircumflex
ENCODING 251
SWIDTH 501 0
DWIDTH 16 0
BBX 15 24 2 0
BITMAP
0070
00F0
01F0
0318
0618
0000
3C1E
3C1E
381C
381C
381C
783C
783C
783C
7038
7038
7038
F078
F078
F0F8
FFF0
FFF0
7EF0
3C00
ENDCHAR

STARTCHAR udieresis
ENCODING 252
SWIDTH 501 0
DWIDTH 16 0
BBX 15 24 2 0
BITMAP
039C
039C
0738
0738
0000
0000
3C1E
3C1E
381C
381C
381C
783C
783C
783C
7038
7038
7038
F078
F078
F0F8
FFF0
FFF0
7EF0
3C00
ENDCHAR

STARTCHAR yacute
ENCODING 253
SWIDTH 456 0
DWIDTH 14 0
BBX 16 30 1 -6
BITMAP
003C
0038
0070
0060
00C0
0000
0000
3C0F
1C0E
1E1E
1E1C
1E1C
1E38
1E38
1E70
1E70
0EE0
0EE0
0FE0
0FC0
0FC0
0F80
0F80
0F00
0F00
0E00
1E00
7C00
F800
F000
ENDCHAR

STARTCHAR thorn
ENCODING 254
SWIDTH 501 0
DWIDTH 16 0
BBX 17 30 0 -6
BITMAP
078000
078000
078000
070000
070000
0F0000
0F3C00
0F7E00
0FFF00
0FFF00
0F8F00
1F0780
1E0780
1E0780
1C0700
1C0700
1C0F00
3C0F00
3E1E00
3E1E00
3FFC00
3FF800
3BF000
79E000
780000
780000
700000
700000
F00000
F00000
ENDCHAR

STARTCHAR ydieresis
ENCODING 255
SWIDTH 456 0
DWIDTH 14 0
BBX 16 30 1 -6
BITMAP
039C
039C
0738
0738
0000
0000
0000
3C0F
1C0E
1E1E
1E1C
1E1C
1E38
1E38
1E70
1E70
0EE0
0EE0
0FE0
0FC0
0FC0
0F80
0F80
0F00
0F00
0E00
1E00
7C00
F800
F000
ENDCHAR
ENDFONT
